<?xml version="1.0" standalone="no"?>
<!DOCTYPE svg PUBLIC "-//W3C//DTD SVG 20010904//EN"
 "http://www.w3.org/TR/2001/REC-SVG-20010904/DTD/svg10.dtd">
<svg version="1.0" xmlns="http://www.w3.org/2000/svg"
 width="1604.000000pt" height="1604.000000pt" viewBox="0 0 1604.000000 1604.000000"
 preserveAspectRatio="xMidYMid meet">
<metadata>
Created by potrace 1.14, written by Peter Selinger 2001-2017
</metadata>
<g transform="translate(0.000000,1604.000000) scale(0.100000,-0.100000)"
fill="#000000" stroke="none">
<path d="M40 12720 c-8 -5 -18 -6 -22 -4 -4 3 -7 -2084 -6 -4637 l3 -4643
2225 -1 c1224 0 2231 1 2238 3 9 3 12 137 12 626 l0 622 -1539 0 -1540 -1 0
1483 0 1482 27 1 c15 1 497 2 1072 2 l1045 2 1 625 c1 344 -3 632 -7 640 -5 8
-9 10 -9 5 0 -12 -218 -13 -237 -2 -6 4 -14 4 -16 0 -4 -7 -373 -9 -387 -3 -3
1 -9 1 -15 0 -26 -7 -297 -4 -302 3 -2 4 -9 4 -16 0 -15 -9 -298 -10 -304 0
-2 4 -9 4 -16 0 -15 -9 -298 -10 -304 -1 -2 5 -12 4 -21 0 -21 -10 -143 -9
-159 1 -7 5 -13 5 -13 0 0 -4 -75 -8 -167 -8 l-168 1 -2 1282 -2 1282 77 0
c123 1 175 -1 184 -6 4 -3 13 -2 20 2 7 4 30 7 52 6 23 -1 75 -2 116 -2 41 1
84 1 95 1 94 -1 157 0 163 0 4 1 9 1 12 0 7 -2 192 -3 205 -1 6 1 28 1 50 1
75 -2 363 -2 371 0 5 1 11 1 14 0 7 -2 192 -3 205 -1 6 1 28 1 50 1 22 0 74
-1 115 -1 41 1 84 1 95 1 94 -1 157 0 163 0 4 1 9 1 12 0 7 -2 192 -3 205 -1
6 1 28 1 50 1 98 -2 362 -1 385 2 l24 2 1 605 c1 333 -1 610 -2 616 -3 8 -143
11 -479 10 -262 -1 -478 2 -480 6 -3 4 -15 4 -27 0 -26 -10 -123 -9 -133 0 -3
4 -16 3 -28 -1 -25 -9 -123 -8 -132 1 -3 4 -16 3 -28 -1 -25 -9 -123 -8 -132
1 -3 4 -16 3 -28 -1 -25 -9 -123 -8 -132 1 -3 4 -16 3 -28 -1 -25 -9 -123 -8
-132 1 -3 4 -16 3 -28 -1 -25 -9 -123 -8 -132 1 -3 4 -16 3 -28 -1 -25 -9
-123 -8 -132 1 -3 4 -16 4 -28 0 -26 -9 -1403 -8 -1412 1 -3 3 -16 2 -28 -2
-25 -9 -123 -8 -132 1 -3 4 -16 3 -28 -1 -18 -6 -122 -7 -136 -1 -3 1 -9 1
-15 0 -25 -6 -151 -5 -155 2 -3 4 -12 3 -20 -2z"/>
<path d="M9238 12699 c-10 -17 -18 -37 -18 -45 0 -8 -4 -14 -10 -14 -5 0 -9
-3 -8 -7 1 -5 -15 -43 -35 -86 -20 -42 -36 -79 -34 -81 1 -2 -6 -12 -15 -22
-9 -11 -17 -22 -17 -26 -1 -5 -28 -65 -62 -135 -33 -71 -76 -162 -96 -203 -19
-41 -39 -82 -44 -90 -5 -8 -14 -26 -20 -40 -6 -14 -31 -68 -57 -120 -25 -52
-45 -98 -44 -102 1 -3 -5 -12 -13 -18 -8 -7 -15 -18 -15 -25 0 -8 -18 -49 -39
-92 -22 -43 -64 -130 -94 -193 -30 -63 -83 -173 -118 -245 -34 -71 -62 -133
-61 -137 1 -5 -2 -8 -8 -8 -5 0 -10 -6 -10 -14 0 -7 -17 -49 -39 -92 -50 -103
-154 -318 -156 -324 -6 -19 -38 -86 -44 -90 -3 -3 -7 -9 -8 -15 -1 -10 -91
-197 -231 -485 -41 -85 -76 -161 -78 -169 -1 -8 -6 -17 -11 -20 -4 -3 -10 -15
-11 -26 -2 -11 -9 -27 -16 -35 -7 -8 -31 -55 -53 -105 -23 -49 -76 -162 -119
-250 -43 -88 -78 -162 -79 -165 -1 -3 -27 -58 -58 -124 -31 -65 -57 -122 -57
-127 0 -5 -4 -9 -10 -9 -5 0 -9 -3 -8 -7 1 -5 -11 -35 -27 -68 -16 -33 -30
-62 -30 -65 -1 -4 -58 -123 -175 -365 -114 -235 -200 -416 -201 -423 -1 -4
-12 -26 -24 -49 -13 -22 -21 -44 -18 -47 4 -3 1 -6 -5 -6 -7 0 -12 -4 -12 -10
0 -5 -30 -71 -66 -147 -36 -76 -90 -187 -119 -248 -112 -233 -165 -347 -165
-356 0 -5 -4 -9 -10 -9 -5 0 -10 -6 -10 -13 0 -7 -16 -45 -35 -84 -19 -39 -35
-76 -35 -82 0 -6 -4 -11 -10 -11 -5 0 -10 -4 -10 -9 0 -12 -35 -88 -272 -581
-38 -80 -68 -145 -66 -145 1 0 -7 -16 -20 -36 -12 -20 -22 -44 -22 -53 0 -9
-4 -16 -10 -16 -5 0 -10 -5 -10 -11 0 -11 -70 -159 -80 -169 -3 -3 -6 -9 -7
-15 -1 -5 -39 -86 -84 -180 -46 -93 -83 -172 -84 -175 0 -3 -17 -39 -37 -80
-20 -41 -63 -131 -96 -200 -199 -415 -259 -542 -273 -574 -5 -11 -13 -28 -18
-36 -6 -8 -24 -46 -42 -85 -71 -154 -124 -260 -134 -267 -5 -4 -6 -8 -2 -8 5
0 1 -12 -7 -27 -8 -16 -44 -89 -79 -163 -36 -74 -88 -184 -117 -245 -29 -60
-79 -165 -111 -233 -33 -67 -59 -127 -59 -132 0 -6 -5 -10 -11 -10 -5 0 -8 -4
-4 -9 3 -5 -2 -17 -11 -25 -8 -9 -13 -16 -9 -16 3 0 1 -8 -4 -17 -9 -17 32
-18 779 -18 l788 0 18 40 c74 172 97 223 109 246 8 14 12 29 8 33 -3 3 -1 6 5
6 7 0 12 7 12 16 0 9 7 28 15 42 19 34 39 85 37 94 -1 5 2 8 8 8 6 0 9 3 8 7
-1 5 4 19 9 33 24 55 51 117 72 162 11 26 21 49 21 51 0 2 15 37 34 78 19 41
35 77 35 82 0 4 8 22 18 40 9 17 18 34 18 37 4 14 72 169 85 192 6 10 10 25
10 33 0 8 5 15 12 15 6 0 9 3 6 6 -6 5 8 39 88 212 19 40 34 78 34 85 0 7 4
17 8 23 5 5 31 61 57 124 27 63 55 124 62 135 13 20 27 20 2134 20 1402 0
2123 -3 2128 -10 4 -5 43 -91 86 -190 43 -99 85 -196 93 -215 9 -19 15 -38 14
-42 -1 -5 3 -8 10 -8 6 0 9 -2 6 -6 -3 -3 8 -33 24 -67 17 -34 31 -66 32 -72
2 -10 12 -33 53 -125 72 -160 93 -210 93 -220 0 -5 5 -10 10 -10 6 0 10 -6 10
-14 0 -8 14 -45 32 -83 17 -37 31 -74 31 -80 0 -7 4 -13 9 -13 4 0 8 -6 8 -14
0 -8 7 -27 15 -43 8 -15 23 -48 34 -73 10 -25 27 -63 37 -85 9 -22 18 -42 18
-45 1 -3 9 -21 18 -40 33 -72 119 -267 123 -280 7 -25 36 -80 42 -81 31 -4
1586 -3 1601 1 17 5 12 19 -53 155 -146 300 -203 420 -209 443 -4 12 -12 22
-17 22 -5 0 -9 5 -9 11 0 6 -29 70 -64 142 -99 206 -120 252 -117 256 1 2 -1
7 -6 10 -5 3 -17 24 -27 46 -11 22 -42 87 -70 145 -27 58 -51 107 -52 110 -4
18 -49 108 -60 120 -7 8 -13 17 -13 20 0 12 -25 68 -125 273 -58 120 -106 222
-106 227 0 6 -5 10 -12 10 -6 0 -9 3 -5 6 3 3 -14 45 -38 92 -96 195 -159 327
-157 335 1 4 -2 7 -8 7 -6 0 -9 3 -8 8 1 4 -25 61 -57 127 -32 66 -59 122 -60
125 -1 3 -25 55 -55 115 -29 61 -53 113 -52 118 1 4 -3 7 -9 7 -5 0 -7 5 -4
10 3 6 1 10 -5 10 -6 0 -9 4 -5 9 3 5 -2 16 -10 24 -8 9 -15 20 -15 25 0 6
-11 32 -24 59 -74 146 -126 257 -126 269 0 8 -3 14 -8 14 -4 0 -18 24 -31 53
-13 28 -51 108 -84 177 -34 69 -62 132 -64 140 -1 8 -7 16 -12 18 -6 2 -11 9
-11 16 0 7 -20 52 -45 102 -24 49 -45 94 -45 99 0 6 -6 17 -12 24 -7 6 -13 15
-14 19 0 4 -37 83 -82 176 -45 93 -82 175 -82 182 0 7 -3 14 -8 16 -6 2 -93
172 -97 188 0 3 -17 40 -38 82 -20 43 -37 82 -37 88 0 5 -4 10 -10 10 -5 0
-10 5 -10 10 0 6 -26 63 -57 128 -31 64 -56 120 -55 124 1 3 -5 12 -13 18 -8
7 -15 17 -15 22 0 5 -23 58 -51 116 -149 310 -186 387 -235 490 -30 62 -54
117 -54 123 0 5 -4 9 -10 9 -5 0 -10 4 -10 9 0 6 -26 65 -59 133 -32 68 -59
128 -61 133 -1 6 -11 22 -21 37 -10 14 -19 31 -19 37 0 6 -16 40 -35 76 -19
36 -34 68 -35 70 0 3 -22 50 -50 106 -27 55 -50 107 -50 115 0 8 -4 14 -9 14
-5 0 -12 10 -16 23 -4 12 -8 24 -9 27 -1 3 -33 68 -70 145 -38 77 -93 192
-123 255 -31 63 -85 176 -120 250 -161 332 -211 438 -217 458 -4 12 -11 22
-15 22 -4 0 -13 17 -20 38 -8 20 -38 86 -67 146 -30 59 -54 114 -54 122 0 8
-4 14 -8 14 -5 0 -16 19 -27 43 -10 23 -55 120 -101 215 -46 95 -84 176 -85
180 -2 4 -17 36 -36 71 -18 35 -33 70 -33 77 0 8 -4 14 -9 14 -5 0 -12 10 -16
23 -4 12 -8 24 -9 27 -3 8 -113 235 -168 347 -27 56 -48 104 -46 107 2 2 -4
12 -13 22 -14 17 -22 32 -28 56 -1 4 -12 27 -25 50 l-23 43 -69 3 c-68 2 -69
2 -86 -29z m112 -2672 c0 -8 6 -27 14 -43 8 -16 47 -105 86 -199 40 -93 78
-183 85 -200 7 -16 32 -75 55 -130 23 -55 49 -116 58 -135 9 -19 17 -37 17
-40 0 -3 11 -27 23 -54 12 -27 22 -50 22 -52 0 -2 14 -33 30 -69 17 -36 30
-68 30 -70 0 -3 9 -24 19 -48 16 -36 29 -67 36 -87 3 -9 50 -113 102 -230 14
-30 32 -71 40 -90 8 -19 24 -55 36 -79 11 -25 20 -51 20 -58 0 -7 4 -13 7 -13
4 0 13 -15 20 -32 7 -18 28 -66 46 -106 19 -40 34 -75 34 -77 0 -3 14 -35 31
-72 55 -119 76 -166 109 -243 18 -41 45 -102 60 -135 15 -33 44 -96 63 -140
19 -44 45 -102 58 -130 13 -27 24 -52 24 -55 0 -3 6 -15 13 -26 6 -12 8 -24 5
-28 -3 -3 -1 -6 5 -6 7 0 12 -4 12 -10 0 -5 12 -35 26 -67 15 -32 36 -80 49
-108 12 -27 41 -91 64 -142 68 -151 84 -187 86 -198 2 -5 20 -46 40 -90 21
-44 45 -98 55 -120 10 -22 25 -56 33 -75 l16 -35 -779 -3 c-428 -1 -1131 -1
-1563 0 l-784 3 32 70 c18 39 31 72 29 74 -1 2 3 10 11 18 8 8 15 23 15 34 0
10 5 19 10 19 6 0 10 6 10 13 0 8 14 41 30 75 17 34 30 64 30 66 0 2 20 47 45
100 25 53 45 99 45 101 0 4 25 59 101 223 22 46 39 86 39 88 0 6 67 153 80
176 6 10 10 25 10 33 0 8 5 15 10 15 6 0 10 6 10 13 0 8 6 27 14 43 15 29 58
124 61 134 3 9 42 95 64 140 11 24 21 50 21 57 0 7 5 13 10 13 6 0 9 3 8 8 -1
4 7 27 19 52 11 25 47 106 81 180 33 74 74 167 92 205 18 39 33 75 35 80 1 6
25 59 53 119 29 59 52 111 52 115 0 4 11 29 24 57 13 27 39 83 56 124 18 41
48 108 66 148 19 41 34 75 34 77 0 2 27 66 61 142 34 76 70 158 81 183 32 75
36 83 67 151 17 37 31 69 31 72 0 2 14 35 32 73 17 38 33 71 33 74 1 3 8 21
15 40 8 19 12 35 9 36 -2 0 3 8 11 17 8 9 21 23 28 32 16 19 32 20 32 2z"/>
<path d="M15057 5114 c-1 -1 -29 -5 -62 -8 -33 -3 -75 -10 -92 -15 -18 -5 -33
-8 -33 -6 0 4 -106 -37 -150 -58 -221 -103 -417 -347 -470 -583 -25 -109 -32
-292 -16 -384 5 -25 9 -55 10 -67 0 -13 4 -23 8 -23 5 0 7 -3 6 -7 -2 -10 13
-65 21 -78 3 -5 6 -12 6 -15 3 -19 41 -91 78 -149 50 -77 156 -188 232 -243
89 -64 229 -129 315 -145 8 -1 31 -6 50 -9 50 -10 297 -10 345 0 49 9 50 10
105 26 25 7 50 14 56 16 6 1 37 14 70 30 217 102 394 305 463 528 29 94 36
151 36 286 0 135 -7 187 -40 300 -17 61 -82 193 -96 198 -5 2 -9 10 -9 18 0 8
-4 14 -9 14 -5 0 -12 8 -16 19 -7 23 -153 169 -177 177 -10 3 -18 9 -18 14 0
10 -23 24 -136 80 -45 22 -91 40 -103 40 -12 0 -21 4 -21 9 0 4 -10 7 -22 7
-13 -1 -29 2 -35 7 -7 5 -19 7 -27 4 -8 -3 -17 -3 -21 1 -3 3 -18 8 -33 9 -37
4 -212 10 -215 7z"/>
</g>
</svg>
